# xmcd
#
# Track frame offsets: 
#        150
#        20217
#        33689
#        60269
#        80339
#        96011
#        129830
#        142895
#        156462
#        176389
#        191369
#        207733
#        223222
#        246264
#        270637
#        290243
#        310342
#        335567
#
# Disc length: 4713 seconds
#
# Revision: 1
# Processed by: cddbd v1.5.2PL0 Copyright (c) Steve Scherf et al.
# Submitted via: ExactAudioCopy v0.99pb5
#
DISCID=14126712
DTITLE=The Funkees - Dancing time
DYEAR=2012
DGENRE=Ethnic
TTITLE0=Ole
TTITLE1=Akpankoro
TTITLE2=Onye Mmanya
TTITLE3=Abraka
TTITLE4=Point of no return
TTITLE5=Akula Owu Onyeara
TTITLE6=Acid Rock
TTITLE7=Ogbu Achara
TTITLE8=Slipping into darkness
TTITLE9=Dancing time
TTITLE10=Baby I need you
TTITLE11=Break through
TTITLE12=Life
TTITLE13=Mimbo
TTITLE14=303
TTITLE15=Dancing in the nude
TTITLE16=Salem
TTITLE17=Dance with me
EXTD=
EXTT0=
EXTT1=
EXTT2=
EXTT3=
EXTT4=
EXTT5=
EXTT6=
EXTT7=
EXTT8=
EXTT9=
EXTT10=
EXTT11=
EXTT12=
EXTT13=
EXTT14=
EXTT15=
EXTT16=
EXTT17=
PLAYORDER=
